# xmcd
#
# Track frame offsets:
# 150
# 48813
# 72011
# 99713
# 104747
# 133728
# 154108
# 160081
# 175516
# 193737
# 212017
# 230338
# 246980
# 257978
# 264602
#
# Disc length: 3879 seconds
#
#
# Revision: 7
# Processed by: cddbd v1.5.2PL0 Copyright (c) Steve Scherf et al.
# Submitted via: FreeRIP 2.951 
#
DISCID=d40f250f
DTITLE=James Brown - Sex Machine
DYEAR=1970
DGENRE=Soul
TTITLE0=(Get Up) I Feel Like Being a Sex Machine
TTITLE1=Brother Rapp (Pts I and II)
TTITLE2=Medley - Bewildered
TTITLE3=I Got The Feelin'
TTITLE4=Give it Up or Turnit a Loose
TTITLE5=I Don't Want Nobody To Give Me Nothin' (Open Up the Door I'll Get It Myself)
TTITLE6=Licking Stick - Licking Stick
TTITLE7=Lowdown Popcorn
TTITLE8=Spinning Wheel
TTITLE9=If I Ruled the World
TTITLE10=There Was a Time
TTITLE11=It's a Man's Man's Man's World
TTITLE12=Please, Please, Please
TTITLE13=I Can't Stand Myself (When You Touch Me)
TTITLE14=Mother Popcorn
EXTD=
EXTT0=
EXTT1=
EXTT2=
EXTT3=
EXTT4=
EXTT5=
EXTT6=
EXTT7=
EXTT8=
EXTT9=
EXTT10=
EXTT11=
EXTT12=
EXTT13=
EXTT14=
PLAYORDER=
